<?xml version="1.0" encoding="utf-8"?>
<!-- Generator: Adobe Illustrator 16.0.4, SVG Export Plug-In . SVG Version: 6.00 Build 0)  -->
<!DOCTYPE svg PUBLIC "-//W3C//DTD SVG 1.1//EN" "http://www.w3.org/Graphics/SVG/1.1/DTD/svg11.dtd">
<svg version="1.1" id="Capa_1" xmlns="http://www.w3.org/2000/svg" xmlns:xlink="http://www.w3.org/1999/xlink" x="0px" y="0px"
	 width="18.889px" height="23.316px" viewBox="0 0 18.889 23.316" enable-background="new 0 0 18.889 23.316" xml:space="preserve">
<circle cx="6.408" cy="4.729" r="4.729"/>
<path d="M13.29,12.121c-0.614,0-1.203,0.104-1.757,0.287c-1.169-1.499-3.026-2.472-5.125-2.472C2.868,9.937,0,12.693,0,16.097v3.421
	h7.994c0.752,2.206,2.84,3.8,5.296,3.8c3.088,0,5.599-2.512,5.599-5.599S16.378,12.121,13.29,12.121z M8.926,17.719
	c0-2.406,1.958-4.365,4.364-4.365c2.408,0,4.366,1.959,4.366,4.365c0,2.407-1.958,4.365-4.366,4.365
	C10.884,22.084,8.926,20.126,8.926,17.719z"/>
<path d="M14.069,14.509h-1.39c-0.001,0.666,0,2.418,0,2.418s-1.508,0-2.254,0.002v1.389c0.746-0.001,2.254-0.001,2.254-0.001
	s0,1.75-0.001,2.419h1.39c0.001-0.669,0.001-2.419,0.001-2.419s1.507,0,2.253,0v-1.39c-0.746,0-2.253,0-2.253,0
	S14.068,15.175,14.069,14.509z"/>
</svg>
