<?xml version="1.0" encoding="utf-8"?>
<!-- Generator: Adobe Illustrator 16.0.4, SVG Export Plug-In . SVG Version: 6.00 Build 0)  -->
<!DOCTYPE svg PUBLIC "-//W3C//DTD SVG 1.1//EN" "http://www.w3.org/Graphics/SVG/1.1/DTD/svg11.dtd">
<svg version="1.1" id="Capa_1" xmlns="http://www.w3.org/2000/svg" xmlns:xlink="http://www.w3.org/1999/xlink" x="0px" y="0px"
	 width="16.162px" height="16.016px" viewBox="0 0 16.162 16.016" enable-background="new 0 0 16.162 16.016" xml:space="preserve">
<g>
	<path d="M0.424,13.455c-0.586,0.586-0.586,1.535,0,2.121c0.293,0.293,0.677,0.439,1.061,0.439c0.384,0,0.768-0.146,1.061-0.439
		l4.925-4.925L5.349,8.53L0.424,13.455z"/>
	<polygon points="12.733,4.327 14.876,3.218 16,1.047 14.953,0 12.782,1.124 11.673,3.267 9.062,5.879 10.121,6.939 	"/>
	<path d="M13.202,10.02L13,10c-0.366,0-0.713,0.075-1.037,0.195L5.805,4.037C5.925,3.713,6,3.366,6,3L5.98,2.798
		C5.874,1.237,4.588,0,3,0C2.538,0,2.105,0.113,1.714,0.3l1.993,1.993c0.105,0.105,0.177,0.229,0.225,0.36
		c0.131,0.354,0.06,0.768-0.225,1.054C3.512,3.902,3.256,4,3,4C2.882,4,2.765,3.974,2.653,3.932c-0.131-0.05-0.255-0.12-0.36-0.226
		L0.3,1.714C0.113,2.105,0,2.538,0,3c0,1.588,1.237,2.874,2.798,2.98L3,6c0.366,0,0.713-0.075,1.037-0.194l6.157,6.157
		C10.075,12.287,10,12.634,10,13l0.021,0.202C10.126,14.763,11.412,16,13,16c0.462,0,0.896-0.112,1.286-0.3l-1.993-1.993
		c-0.104-0.104-0.177-0.229-0.226-0.359c-0.131-0.355-0.06-0.769,0.226-1.055C12.487,12.098,12.744,12,13,12
		c0.118,0,0.235,0.026,0.347,0.068c0.131,0.049,0.256,0.12,0.36,0.225l1.993,1.993C15.888,13.895,16,13.462,16,13
		C16,11.412,14.763,10.126,13.202,10.02z"/>
</g>
</svg>
