<?xml version="1.0" encoding="utf-8"?>
<!-- Generator: Adobe Illustrator 16.0.4, SVG Export Plug-In . SVG Version: 6.00 Build 0)  -->
<!DOCTYPE svg PUBLIC "-//W3C//DTD SVG 1.1//EN" "http://www.w3.org/Graphics/SVG/1.1/DTD/svg11.dtd">
<svg version="1.1" id="Capa_1" xmlns="http://www.w3.org/2000/svg" xmlns:xlink="http://www.w3.org/1999/xlink" x="0px" y="0px"
	 width="612px" height="792px" viewBox="0 0 612 792" enable-background="new 0 0 612 792" xml:space="preserve">
<path d="M561.204,281.556c4.896,6.12,6.73,13.464,5.508,22.032l-23.256,133.416c-0.816,6.938-3.979,12.648-9.486,17.136
	c-5.508,4.488-11.729,6.732-18.666,6.732H176.256l-6.732,37.944H492.66c7.752,0,14.482,2.754,20.196,8.262
	c5.712,5.508,8.566,12.342,8.566,20.502s-2.854,14.994-8.566,20.502c-5.714,5.508-12.444,8.262-20.196,8.262H135.252
	c-8.568,0-15.912-3.468-22.032-10.402c-5.712-6.938-7.956-14.894-6.732-23.868l15.3-83.232L98.532,205.056l-66.096-20.808
	c-7.752-2.448-13.362-7.14-16.83-14.076c-3.468-6.936-4.182-14.28-2.142-22.032c2.448-7.752,7.242-13.362,14.382-16.83
	c7.14-3.468,14.382-4.182,21.726-2.142l84.456,26.928c5.304,1.632,9.69,4.692,13.158,9.18c3.468,4.488,5.61,9.588,6.426,15.3
	l4.896,46.512l383.112,42.84C550.188,271.152,556.716,275.028,561.204,281.556z M178.704,572.256
	c12.24,0,22.644,4.284,31.212,12.854c8.568,8.566,12.852,18.972,12.852,31.212c0,12.238-4.284,22.746-12.852,31.518
	c-8.568,8.772-18.972,13.158-31.212,13.158c-12.24,0-22.644-4.386-31.212-13.158c-8.568-8.771-12.852-19.278-12.852-31.518
	c0-12.24,4.284-22.646,12.852-31.212C156.06,576.54,166.464,572.256,178.704,572.256z M440.028,572.256
	c12.238,0,22.644,4.284,31.212,12.854c8.566,8.566,12.852,18.972,12.852,31.212c0,12.238-4.284,22.746-12.852,31.518
	c-8.568,8.772-18.974,13.158-31.212,13.158c-12.24,0-22.646-4.386-31.212-13.158c-8.568-8.771-12.854-19.278-12.854-31.518
	c0-12.24,4.284-22.646,12.854-31.212C417.384,576.54,427.788,572.256,440.028,572.256z"/>
</svg>
