<?xml version="1.0" encoding="iso-8859-1"?>
<!-- Generator: Adobe Illustrator 17.1.0, SVG Export Plug-In . SVG Version: 6.00 Build 0)  -->
<!DOCTYPE svg PUBLIC "-//W3C//DTD SVG 1.1//EN" "http://www.w3.org/Graphics/SVG/1.1/DTD/svg11.dtd">
<svg version="1.1" id="Layer_1" xmlns="http://www.w3.org/2000/svg" xmlns:xlink="http://www.w3.org/1999/xlink" x="0px" y="0px"
	 viewBox="0 0 64 64" style="enable-background:new 0 0 64 64;" xml:space="preserve">
<g>
	<path d="M16.939,13.511c0.171,0,0.344-0.043,0.502-0.136c1.509-0.878,3.112-1.599,4.765-2.14c0.524-0.172,0.811-0.737,0.639-1.262
		c-0.171-0.524-0.732-0.812-1.262-0.639c-1.786,0.585-3.518,1.363-5.147,2.312c-0.478,0.278-0.639,0.89-0.361,1.367
		C16.26,13.333,16.595,13.511,16.939,13.511z"/>
	<path d="M37.652,11.188c1.658,0.532,3.266,1.243,4.777,2.111c0.157,0.09,0.328,0.133,0.497,0.133c0.347,0,0.684-0.18,0.868-0.502
		c0.275-0.479,0.109-1.09-0.369-1.365c-1.634-0.938-3.37-1.706-5.162-2.281c-0.522-0.167-1.089,0.121-1.258,0.646
		S37.126,11.019,37.652,11.188z"/>
	<path d="M55.235,41.38c0.07,0.015,0.14,0.021,0.208,0.021c0.463,0,0.876-0.323,0.976-0.793C56.806,38.776,57,36.889,57,34.971
		v-0.08c0-0.552-0.447-1-1-1s-1,0.448-1,1v0.107c0,1.752-0.18,3.5-0.538,5.197C54.348,40.735,54.695,41.266,55.235,41.38z"/>
	<path d="M4.347,30.626c0.068,0.014,0.138,0.021,0.205,0.021c0.464,0,0.879-0.324,0.978-0.795c0.356-1.704,0.895-3.376,1.601-4.972
		c0.224-0.505-0.004-1.096-0.51-1.319c-0.502-0.224-1.096,0.005-1.318,0.51c-0.764,1.724-1.345,3.531-1.729,5.372
		C3.459,29.983,3.806,30.513,4.347,30.626z"/>
	<path d="M16.528,58.404c0.158,0.091,0.329,0.134,0.499,0.134c0.346,0,0.682-0.179,0.867-0.5c0.276-0.479,0.111-1.09-0.366-1.366
		c-1.508-0.87-2.932-1.902-4.23-3.069c-0.408-0.368-1.043-0.335-1.412,0.076c-0.369,0.411-0.335,1.043,0.076,1.412
		C13.364,56.35,14.9,57.465,16.528,58.404z"/>
	<path d="M21.688,60.696c1.788,0.578,3.646,0.969,5.521,1.162c0.035,0.004,0.069,0.005,0.104,0.005c0.507,0,0.941-0.383,0.994-0.898
		c0.056-0.549-0.344-1.041-0.893-1.097c-1.737-0.178-3.456-0.54-5.111-1.076c-0.528-0.168-1.089,0.119-1.259,0.644
		S21.162,60.525,21.688,60.696z"/>
	<path d="M52.853,45.163c-0.708,1.588-1.588,3.11-2.614,4.523c-0.325,0.447-0.227,1.072,0.221,1.397
		c0.178,0.129,0.383,0.191,0.587,0.191c0.31,0,0.614-0.143,0.81-0.412c1.109-1.526,2.06-3.169,2.823-4.886
		c0.226-0.504-0.002-1.096-0.506-1.32C53.665,44.432,53.076,44.659,52.853,45.163z"/>
	<path d="M4.572,41.454c0.069,0,0.14-0.013,0.21-0.028c0.54-0.115,0.885-0.653,0.769-1.193C5.189,38.536,5.004,36.775,5,35.024
		C4.999,34.472,4.552,34,4,34c-0.001,0-0.001,0-0.002,0C3.445,34,2.999,34.475,3,35.028c0.004,1.891,0.204,3.803,0.596,5.635
		C3.695,41.132,4.11,41.454,4.572,41.454z"/>
	<path d="M27.205,10.145c0.035,0,0.071-0.002,0.107-0.006c1.722-0.184,3.498-0.189,5.226-0.015c0.561,0.059,1.041-0.346,1.096-0.895
		c0.056-0.549-0.346-1.04-0.895-1.095C30.875,7.946,28.96,7.952,27.1,8.15c-0.549,0.059-0.946,0.551-0.888,1.1
		C26.267,9.764,26.7,10.145,27.205,10.145z"/>
	<path d="M8.927,20.765c0.31,0,0.615-0.144,0.811-0.414c1.021-1.41,2.195-2.719,3.489-3.891c0.409-0.371,0.44-1.003,0.069-1.413
		c-0.371-0.41-1.005-0.44-1.413-0.07c-1.396,1.265-2.662,2.679-3.765,4.201c-0.324,0.447-0.225,1.072,0.223,1.396
		C8.519,20.703,8.724,20.765,8.927,20.765z"/>
	<path d="M43.021,58.512c0.17,0,0.343-0.043,0.5-0.135c1.626-0.941,3.16-2.059,4.561-3.321c0.41-0.37,0.442-1.002,0.072-1.413
		c-0.37-0.411-1.003-0.442-1.412-0.073c-1.297,1.169-2.717,2.205-4.223,3.076c-0.478,0.276-0.642,0.888-0.364,1.366
		C42.34,58.333,42.675,58.512,43.021,58.512z"/>
	<path d="M32.743,61.858c0.035,0,0.07-0.002,0.105-0.005c1.876-0.197,3.732-0.592,5.52-1.174c0.525-0.171,0.812-0.735,0.642-1.26
		s-0.737-0.813-1.261-0.641c-1.653,0.538-3.373,0.903-5.109,1.086c-0.549,0.058-0.948,0.55-0.89,1.099
		C31.804,61.476,32.237,61.858,32.743,61.858z"/>
	<path d="M5.854,44.705c-0.505,0.226-0.73,0.817-0.505,1.321c0.768,1.714,1.721,3.355,2.833,4.879c0.195,0.268,0.5,0.41,0.809,0.41
		c0.204,0,0.411-0.062,0.589-0.192c0.446-0.326,0.544-0.951,0.218-1.397c-1.03-1.411-1.912-2.93-2.622-4.517
		C6.949,44.707,6.357,44.479,5.854,44.705z"/>
	<path d="M14.913,24.16c0.31,0,0.615-0.144,0.811-0.414c0.712-0.983,1.529-1.894,2.428-2.707c0.409-0.37,0.441-1.002,0.071-1.412
		c-0.372-0.41-1.004-0.441-1.413-0.071c-1.002,0.906-1.912,1.921-2.705,3.017c-0.324,0.447-0.225,1.073,0.224,1.396
		C14.505,24.098,14.71,24.16,14.913,24.16z"/>
	<path d="M35.147,17.37c1.154,0.371,2.272,0.864,3.324,1.469c0.157,0.09,0.328,0.133,0.497,0.133c0.347,0,0.683-0.18,0.868-0.502
		c0.275-0.479,0.11-1.09-0.369-1.365c-1.173-0.674-2.421-1.226-3.709-1.639c-0.528-0.17-1.09,0.121-1.258,0.646
		C34.332,16.638,34.622,17.202,35.147,17.37z"/>
	<path d="M12.084,26.087c-0.548,1.235-0.966,2.534-1.243,3.859c-0.113,0.541,0.233,1.071,0.773,1.184
		c0.069,0.014,0.138,0.021,0.206,0.021c0.463,0,0.879-0.324,0.978-0.795c0.249-1.188,0.624-2.352,1.114-3.459
		c0.224-0.505-0.004-1.096-0.509-1.319C12.896,25.354,12.307,25.583,12.084,26.087z"/>
	<path d="M32.685,15.734c0.055-0.55-0.346-1.04-0.896-1.095c-1.337-0.134-2.714-0.129-4.049,0.013
		c-0.549,0.058-0.946,0.551-0.888,1.1c0.055,0.513,0.488,0.894,0.993,0.894c0.035,0,0.071-0.002,0.107-0.006
		c1.195-0.127,2.435-0.132,3.637-0.011C32.136,16.69,32.63,16.284,32.685,15.734z"/>
	<path d="M20.646,50.883c0.346,0,0.682-0.179,0.867-0.5c0.276-0.479,0.112-1.09-0.366-1.366c-1.051-0.606-2.041-1.324-2.944-2.136
		c-0.408-0.368-1.042-0.335-1.412,0.076c-0.369,0.411-0.335,1.043,0.076,1.412c1.007,0.904,2.11,1.705,3.28,2.38
		C20.304,50.84,20.476,50.883,20.646,50.883z"/>
	<path d="M49,33.937v-0.075c0-0.552-0.337-0.962-0.89-0.962s-0.89,0.485-0.89,1.038c0,1.22-0.126,2.437-0.376,3.616
		c-0.114,0.541,0.231,1.071,0.771,1.186c0.07,0.015,0.14,0.021,0.208,0.021c0.463,0,0.768-0.323,0.867-0.793
		C48.97,36.651,49,35.295,49,33.937z"/>
	<path d="M28.918,52.337c0.056-0.549-0.344-1.041-0.893-1.097c-1.209-0.124-2.405-0.376-3.557-0.749
		c-0.527-0.167-1.089,0.119-1.259,0.644c-0.17,0.526,0.118,1.089,0.644,1.26c1.284,0.416,2.619,0.696,3.967,0.834
		c0.035,0.004,0.069,0.005,0.104,0.005C28.431,53.235,28.865,52.852,28.918,52.337z"/>
	<path d="M31.765,53.231c0.034,0,0.07-0.002,0.105-0.005c1.347-0.142,2.681-0.425,3.964-0.843c0.525-0.171,0.812-0.735,0.642-1.26
		s-0.737-0.814-1.261-0.641c-1.15,0.374-2.346,0.628-3.554,0.755c-0.549,0.058-0.947,0.55-0.89,1.099
		C30.825,52.85,31.259,53.231,31.765,53.231z"/>
	<path d="M42.811,48.344c0.41-0.37,0.442-1.002,0.073-1.412c-0.372-0.412-1.004-0.443-1.413-0.073
		c-0.901,0.812-1.89,1.533-2.938,2.142c-0.478,0.277-0.641,0.889-0.363,1.367c0.186,0.32,0.521,0.498,0.866,0.498
		c0.17,0,0.343-0.043,0.501-0.135C40.704,50.052,41.806,49.25,42.811,48.344z"/>
	<path d="M12.428,33.985c-0.001-0.551-0.448-0.985-1-0.985c-0.001,0-0.002,0-0.002,0c-0.553,0-0.999,0.438-0.998,0.99
		c0.003,1.358,0.147,2.701,0.429,4.016c0.1,0.47,0.515,0.791,0.977,0.791c0.069,0,0.14-0.004,0.21-0.019
		c0.54-0.116,0.885-0.644,0.769-1.184C12.56,36.415,12.431,35.205,12.428,33.985z"/>
	<path d="M12.619,40.538c-0.504,0.226-0.729,0.818-0.503,1.322c0.552,1.231,1.236,2.41,2.034,3.503
		c0.195,0.269,0.5,0.411,0.809,0.411c0.204,0,0.411-0.062,0.589-0.192c0.445-0.325,0.544-0.951,0.218-1.397
		c-0.716-0.981-1.33-2.039-1.825-3.143C13.715,40.537,13.123,40.312,12.619,40.538z"/>
	<path d="M44.124,45.553c0.177,0.129,0.383,0.191,0.587,0.191c0.31,0,0.614-0.143,0.81-0.412c0.797-1.096,1.479-2.277,2.028-3.51
		c0.225-0.504-0.002-1.096-0.507-1.32c-0.504-0.223-1.095,0.002-1.319,0.507c-0.493,1.106-1.104,2.165-1.819,3.147
		C43.578,44.603,43.677,45.229,44.124,45.553z"/>
	<path d="M47.806,31.04c0.07,0,0.141-0.007,0.212-0.022c0.54-0.117,0.883-0.649,0.767-1.188c-0.286-1.322-0.712-2.618-1.267-3.851
		c-0.228-0.503-0.82-0.73-1.322-0.501c-0.504,0.227-0.729,0.818-0.502,1.322c0.498,1.105,0.88,2.266,1.136,3.451
		C46.931,30.719,47.345,31.04,47.806,31.04z"/>
	<path d="M41.341,19.556c-0.368,0.412-0.333,1.044,0.078,1.412c0.904,0.809,1.727,1.715,2.443,2.693
		c0.196,0.267,0.5,0.409,0.808,0.409c0.205,0,0.412-0.063,0.591-0.194c0.445-0.327,0.541-0.952,0.215-1.397
		c-0.8-1.09-1.716-2.099-2.723-3C42.34,19.109,41.709,19.145,41.341,19.556z"/>
	<path d="M52.916,24.996c0.661,1.514,1.178,3.094,1.526,4.706c0.102,0.469,0.516,0.789,0.977,0.789c0.07,0,0.141-0.007,0.212-0.022
		c0.54-0.117,0.883-0.648,0.767-1.188c-0.333-1.545-0.813-3.061-1.414-4.525c3.256-0.843,5.664-3.792,5.664-7.312
		c0-4.176-3.386-7.562-7.562-7.562s-7.562,3.385-7.562,7.562C45.523,21.561,48.818,24.904,52.916,24.996z"/>
	<circle cx="22.069" cy="17.636" r="3.803"/>
	<circle cx="29.339" cy="34" r="9.007"/>
	<polygon points="29.505,18.271 28.27,21.136 27.035,24 29.505,24 31.975,24 30.74,21.136 	"/>
	<polygon points="13.843,33.933 16.422,35.168 19,36.403 19,33.933 19,31.463 16.422,32.698 	"/>
	<polygon points="20.789,40.047 19.844,42.739 18.899,45.431 21.591,44.486 24.283,43.54 22.536,41.794 	"/>
	<polygon points="30.556,46.705 31.791,44 29.321,44 26.851,44 28.086,46.705 29.321,49.411 	"/>
	<polygon points="37.164,41.751 35.417,43.498 38.127,44.461 40.837,45.424 39.874,42.714 38.911,40.005 	"/>
	<polygon points="17.877,22.305 18.952,25.127 20.028,27.949 21.774,26.202 23.521,24.456 20.699,23.38 	"/>
	<polygon points="39,31.463 39,33.933 39,36.403 42.083,35.168 45.167,33.933 42.083,32.698 	"/>
	<polygon points="37.907,27.949 38.982,25.127 40.058,22.305 37.235,23.38 34.413,24.456 36.16,26.202 	"/>
</g>
</svg>
