<?xml version="1.0" encoding="utf-8"?>
<!-- Generator: Adobe Illustrator 15.0.0, SVG Export Plug-In . SVG Version: 6.00 Build 0)  -->
<!DOCTYPE svg PUBLIC "-//W3C//DTD SVG 1.1//EN" "http://www.w3.org/Graphics/SVG/1.1/DTD/svg11.dtd">
<svg version="1.1" id="Layer_1" xmlns="http://www.w3.org/2000/svg" xmlns:xlink="http://www.w3.org/1999/xlink" x="0px" y="0px"
	 width="26px" height="26px" viewBox="0 0 26 26" enable-background="new 0 0 26 26" xml:space="preserve">
<path d="M13,5.929c-3.905,0-7.071,3.166-7.071,7.071S9.095,20.071,13,20.071s7.071-3.166,7.071-7.071S16.905,5.929,13,5.929z
	 M12.889,17.44c-0.676,0-1.135-0.498-1.135-1.161c0-0.677,0.472-1.161,1.135-1.161c0.689,0,1.136,0.484,1.148,1.161
	C14.037,16.942,13.578,17.44,12.889,17.44z M14.433,12.694c-0.472,0.522-0.663,1.021-0.65,1.594v0.23h-1.696l-0.013-0.332
	c-0.038-0.651,0.179-1.314,0.752-2.003c0.409-0.485,0.741-0.893,0.741-1.327c0-0.447-0.294-0.74-0.933-0.766
	c-0.42,0-0.931,0.153-1.263,0.383l-0.434-1.391c0.459-0.268,1.225-0.523,2.131-0.523c1.684,0,2.45,0.931,2.45,1.991
	C15.518,11.52,14.918,12.158,14.433,12.694z"/>
</svg>
