<?xml version="1.0" encoding="iso-8859-1"?>
<!-- Generator: Adobe Illustrator 17.1.0, SVG Export Plug-In . SVG Version: 6.00 Build 0)  -->
<!DOCTYPE svg PUBLIC "-//W3C//DTD SVG 1.1//EN" "http://www.w3.org/Graphics/SVG/1.1/DTD/svg11.dtd">
<svg version="1.1" id="Capa_1" xmlns="http://www.w3.org/2000/svg" xmlns:xlink="http://www.w3.org/1999/xlink" x="0px" y="0px"
	 viewBox="0 0 150 150" style="enable-background:new 0 0 150 150;" xml:space="preserve">
<g>
	<path d="M114.798,71.135c0-14.408-15.896-26.276-36.123-27.572c0.41,0.662,0.659,1.435,0.659,2.27v3.792
		c2.757,0.228,5.41,0.668,7.92,1.297l1.279-1.279c0.818-0.818,1.907-1.269,3.064-1.269s2.246,0.451,3.064,1.269
		c0.819,0.818,1.27,1.907,1.27,3.064c0,0.451-0.088,0.884-0.219,1.302c7.955,3.973,13.087,10.17,13.087,17.126
		c0,11.458-13.914,20.865-31.465,21.637v-3.997c0-1.289-1.045-2.333-2.333-2.333s-2.333,1.045-2.333,2.333v3.997
		C55.116,92,41.202,82.594,41.202,71.135c0-6.956,5.132-13.153,13.087-17.126c-0.132-0.418-0.219-0.851-0.219-1.302
		c0-1.158,0.451-2.246,1.269-3.064c0.818-0.818,1.907-1.269,3.064-1.269s2.246,0.451,3.064,1.269l1.279,1.279
		c2.51-0.629,5.163-1.07,7.92-1.297v-3.792c0-0.835,0.248-1.608,0.659-2.27c-20.227,1.295-36.123,13.164-36.123,27.572
		C35.202,86.406,53.056,98.83,75,98.83S114.798,86.406,114.798,71.135z"/>
	<path d="M131.88,51.786c6.204,6.643,9.787,14.449,9.787,22.795c0,24.125-29.906,43.752-66.667,43.752
		c-3.831,0-7.581-0.225-11.236-0.634c-0.174,2.069-0.697,4.038-1.509,5.852c4.142,0.504,8.396,0.782,12.746,0.782
		c40.068,0,72.667-22.319,72.667-49.752c0-10.005-4.351-19.322-11.803-27.131C134.851,49.16,133.493,50.637,131.88,51.786z"/>
	<path d="M27.963,112.459c0.415-1.988,1.171-3.847,2.18-5.54c-13.392-8.008-21.81-19.54-21.81-32.339
		c0-24.125,29.906-43.752,66.667-43.752c12.786,0,24.737,2.379,34.895,6.491c0.425-1.989,1.278-3.817,2.446-5.401
		c-10.92-4.497-23.695-7.09-37.34-7.09c-40.068,0-72.667,22.319-72.667,49.752C2.333,89.739,12.297,103.326,27.963,112.459z"/>
	<path d="M33.635,108.855c-1.023,1.686-1.709,3.596-1.95,5.647c-0.065,0.548-0.107,1.102-0.107,1.667
		c0,7.805,6.327,14.132,14.132,14.132c5.343,0,9.99-2.966,12.392-7.34c0.955-1.739,1.542-3.703,1.689-5.79
		c0.023-0.332,0.051-0.663,0.051-1.002c0-7.805-6.327-14.132-14.132-14.132C40.586,102.038,36.113,104.774,33.635,108.855z"/>
	<path d="M123.709,50.409c1.925,0,3.717-0.546,5.25-1.478c1.706-1.037,3.078-2.56,3.927-4.381c0.606-1.3,0.955-2.744,0.955-4.273
		c0-5.596-4.536-10.132-10.132-10.132c-3.029,0-5.739,1.336-7.596,3.442c-1.303,1.478-2.179,3.335-2.443,5.388
		c-0.055,0.427-0.093,0.859-0.093,1.301C113.578,45.872,118.114,50.409,123.709,50.409z"/>
	<circle cx="75" cy="69.304" r="14.896"/>
	<path d="M77.333,49.833v-0.335v-3.665c0-1.289-1.045-2.333-2.333-2.333s-2.333,1.045-2.333,2.333v3.665v0.335
		c0,1.289,1.045,2.333,2.333,2.333S77.333,51.122,77.333,49.833z"/>
	<path d="M98.471,71.638c1.289,0,2.333-1.045,2.333-2.333s-1.045-2.333-2.333-2.333h-4c-1.289,0-2.333,1.045-2.333,2.333
		s1.045,2.333,2.333,2.333H98.471z"/>
	<path d="M51.529,66.971c-1.289,0-2.333,1.045-2.333,2.333s1.045,2.333,2.333,2.333h4c1.289,0,2.333-1.045,2.333-2.333
		s-1.045-2.333-2.333-2.333H51.529z"/>
	<path d="M91.596,50.374c-0.597,0-1.194,0.228-1.65,0.683l-0.476,0.476l-2.352,2.352c-0.911,0.911-0.911,2.389,0,3.3
		c0.456,0.456,1.053,0.683,1.65,0.683s1.194-0.228,1.65-0.683l2.828-2.828c0.342-0.342,0.555-0.763,0.641-1.205
		c0.142-0.735-0.071-1.526-0.641-2.095C92.791,50.602,92.194,50.374,91.596,50.374z"/>
	<path d="M87.118,81.422c-0.911,0.911-0.911,2.389,0,3.3l2.828,2.828c0.911,0.911,2.389,0.911,3.3,0c0.911-0.911,0.911-2.389,0-3.3
		l-2.828-2.828C89.507,80.511,88.029,80.511,87.118,81.422z"/>
	<path d="M60.053,87.551l2.828-2.828c0.911-0.911,0.911-2.389,0-3.3c-0.911-0.911-2.389-0.911-3.3,0l-2.828,2.828
		c-0.911,0.911-0.911,2.389,0,3.3C57.665,88.462,59.142,88.462,60.053,87.551z"/>
	<path d="M59.582,57.186c0.456,0.456,1.053,0.683,1.65,0.683s1.194-0.228,1.65-0.683c0.911-0.911,0.911-2.389,0-3.3l-2.352-2.352
		l-0.476-0.476c-0.456-0.456-1.053-0.683-1.65-0.683s-1.194,0.228-1.65,0.683c-0.57,0.569-0.783,1.36-0.641,2.095
		c0.085,0.441,0.299,0.863,0.641,1.205L59.582,57.186z"/>
</g>
</svg>
