<?xml version="1.0" encoding="utf-8"?>
<!-- Generator: Adobe Illustrator 16.0.0, SVG Export Plug-In . SVG Version: 6.00 Build 0)  -->
<!DOCTYPE svg PUBLIC "-//W3C//DTD SVG 1.1//EN" "http://www.w3.org/Graphics/SVG/1.1/DTD/svg11.dtd">
<svg version="1.1" id="Layer_1" xmlns="http://www.w3.org/2000/svg" xmlns:xlink="http://www.w3.org/1999/xlink" x="0px" y="0px"
	 width="126px" height="126px" viewBox="0 0 126 126" enable-background="new 0 0 126 126" xml:space="preserve">
<g>
	<path fill="#010101" d="M52.106,100.945l-2.78-1.025c0.219-2.027,0.147-4.093-0.234-6.146l2.684-1.238
		c1.677-0.77,2.412-2.764,1.639-4.441l-1.567-3.4c-0.772-1.676-2.763-2.414-4.437-1.641l-2.688,1.239
		c-1.313-1.627-2.837-3.023-4.519-4.176l1.026-2.775c0.638-1.731-0.25-3.661-1.98-4.301l-3.515-1.298
		c-1.677-0.617-3.68,0.305-4.298,1.979L30.412,76.5c-2.025-0.216-4.091-0.145-6.146,0.234l-1.237-2.684
		c-0.772-1.676-2.765-2.412-4.439-1.641l-3.403,1.566c-1.676,0.773-2.41,2.767-1.64,4.441l1.237,2.684
		c-1.624,1.315-3.023,2.839-4.174,4.523l-2.774-1.026c-1.675-0.624-3.681,0.3-4.302,1.979l-1.297,3.515
		c-0.309,0.84-0.273,1.749,0.1,2.561c0.376,0.811,1.044,1.429,1.88,1.735l2.78,1.028c-0.22,2.025-0.148,4.094,0.234,6.147
		l-2.687,1.237c-1.676,0.771-2.41,2.763-1.639,4.438l1.568,3.404c0.772,1.675,2.763,2.411,4.438,1.638l2.687-1.236
		c1.313,1.626,2.836,3.022,4.52,4.174l-1.026,2.777c-0.312,0.838-0.276,1.745,0.1,2.559c0.371,0.812,1.041,1.432,1.879,1.743
		l3.515,1.296c0.836,0.31,1.747,0.273,2.559-0.099c0.813-0.375,1.43-1.043,1.738-1.881l1.027-2.78
		c2.025,0.22,4.093,0.148,6.147-0.231l1.235,2.684c0.772,1.674,2.766,2.411,4.44,1.638l3.402-1.566
		c1.678-0.772,2.413-2.763,1.639-4.44l-1.237-2.684c1.626-1.315,3.024-2.838,4.173-4.52l2.778,1.027
		c0.841,0.311,1.75,0.273,2.563-0.102c0.81-0.374,1.426-1.042,1.736-1.879l1.297-3.515
		C54.724,103.514,53.836,101.585,52.106,100.945z M33.698,109.688c-1.754,0.808-3.615,1.216-5.533,1.216
		c-5.152,0-9.872-3.023-12.025-7.698c-3.052-6.631-0.144-14.507,6.483-17.558c1.753-0.809,3.614-1.217,5.529-1.217
		c5.151,0,9.875,3.021,12.029,7.697C43.233,98.759,40.324,106.635,33.698,109.688z"/>
	<path fill="#010101" d="M85.207,110.526l-1.547-0.57c0.123-1.129,0.082-2.28-0.13-3.423l1.494-0.689
		c0.934-0.428,1.343-1.538,0.913-2.473l-0.872-1.893c-0.432-0.935-1.539-1.346-2.471-0.914l-1.497,0.689
		c-0.731-0.905-1.58-1.684-2.515-2.325l0.571-1.546c0.355-0.964-0.14-2.037-1.103-2.395l-1.958-0.722
		c-0.934-0.346-2.048,0.168-2.394,1.101l-0.571,1.548c-1.126-0.121-2.278-0.081-3.421,0.13l-0.688-1.493
		c-0.432-0.934-1.541-1.345-2.474-0.914L64.65,95.51c-0.934,0.432-1.342,1.54-0.913,2.473l0.689,1.495
		c-0.905,0.732-1.684,1.581-2.326,2.518l-1.544-0.57c-0.931-0.347-2.049,0.165-2.394,1.101l-0.724,1.958
		c-0.171,0.467-0.15,0.974,0.055,1.426c0.21,0.451,0.583,0.795,1.049,0.966l1.547,0.572c-0.123,1.129-0.083,2.279,0.13,3.423
		l-1.495,0.689c-0.934,0.43-1.343,1.538-0.913,2.471l0.874,1.896c0.429,0.932,1.538,1.343,2.471,0.913l1.495-0.688
		c0.731,0.905,1.581,1.682,2.518,2.323l-0.571,1.545c-0.174,0.467-0.154,0.974,0.055,1.426c0.208,0.452,0.579,0.797,1.047,0.971
		l1.956,0.722c0.467,0.172,0.972,0.152,1.425-0.056s0.797-0.58,0.968-1.046l0.571-1.55c1.129,0.124,2.279,0.084,3.423-0.128
		l0.689,1.495c0.429,0.931,1.539,1.342,2.47,0.911l1.896-0.872c0.933-0.432,1.342-1.538,0.912-2.472l-0.688-1.496
		c0.904-0.731,1.683-1.578,2.323-2.516l1.547,0.571c0.467,0.174,0.974,0.152,1.427-0.056c0.45-0.207,0.795-0.581,0.967-1.047
		l0.722-1.957C86.664,111.957,86.169,110.882,85.207,110.526z M74.957,115.396c-0.976,0.448-2.011,0.676-3.08,0.676
		c-2.868,0-5.497-1.683-6.696-4.287c-1.7-3.69-0.082-8.077,3.61-9.775c0.976-0.45,2.012-0.677,3.079-0.677
		c2.868,0,5.496,1.682,6.697,4.285C80.265,109.31,78.647,113.694,74.957,115.396z"/>
	<path fill="#010101" d="M120.297,51.622l-4.673-1.725c0.369-3.407,0.248-6.882-0.392-10.337l4.513-2.077
		c2.817-1.294,4.052-4.647,2.754-7.468l-2.634-5.718c-1.297-2.819-4.645-4.059-7.46-2.759l-4.519,2.084
		c-2.208-2.735-4.771-5.082-7.596-7.02l1.723-4.668c1.072-2.911-0.418-6.155-3.328-7.229l-5.909-2.186
		c-2.819-1.036-6.186,0.515-7.228,3.33l-1.724,4.673c-3.405-0.366-6.88-0.245-10.333,0.391l-2.08-4.51
		c-1.297-2.819-4.646-4.056-7.464-2.758l-5.72,2.634c-2.818,1.299-4.055,4.65-2.759,7.466l2.083,4.513
		c-2.731,2.211-5.083,4.773-7.02,7.603l-4.665-1.724c-2.815-1.049-6.188,0.504-7.23,3.324l-2.181,5.912
		c-0.521,1.41-0.46,2.938,0.166,4.304c0.634,1.364,1.758,2.403,3.163,2.917l4.673,1.73c-0.371,3.403-0.25,6.882,0.392,10.335
		l-4.514,2.078c-2.819,1.299-4.053,4.645-2.756,7.461l2.635,5.724c1.298,2.814,4.646,4.054,7.463,2.755l4.515-2.08
		c2.208,2.735,4.771,5.083,7.602,7.018l-1.726,4.669c-0.524,1.408-0.463,2.936,0.167,4.303c0.626,1.364,1.751,2.406,3.159,2.929
		l5.909,2.179c1.409,0.521,2.937,0.46,4.303-0.165c1.367-0.629,2.404-1.753,2.922-3.163l1.728-4.674
		c3.404,0.371,6.879,0.25,10.336-0.389l2.076,4.512c1.298,2.814,4.649,4.055,7.466,2.755l5.72-2.634
		c2.821-1.3,4.053-4.646,2.755-7.464l-2.079-4.513c2.732-2.213,5.084-4.771,7.016-7.6l4.672,1.728
		c1.411,0.521,2.94,0.459,4.307-0.171c1.362-0.628,2.398-1.753,2.919-3.159l2.183-5.911
		C124.699,55.939,123.206,52.696,120.297,51.622z M89.351,66.32c-2.95,1.357-6.078,2.045-9.301,2.045
		c-8.663,0-16.597-5.082-20.22-12.945c-5.132-11.146-0.242-24.388,10.899-29.518c2.947-1.359,6.077-2.045,9.297-2.045
		c8.662,0,16.6,5.079,20.223,12.94C105.379,47.946,100.491,61.188,89.351,66.32z"/>
</g>
</svg>
